<svg width="800" height="600" viewBox="0 0 800 600" xmlns="http://www.w3.org/2000/svg">
  <defs>
    <linearGradient id="intGrad" x1="0%" y1="0%" x2="100%" y2="100%">
      <stop offset="0%" style="stop-color:#3B82F6;stop-opacity:0.1" />
      <stop offset="100%" style="stop-color:#1D4ED8;stop-opacity:0.1" />
    </linearGradient>
  </defs>
  
  <rect width="800" height="600" fill="url(#intGrad)"/>
  
  <!-- WhatsApp icon -->
  <g>
    <circle cx="150" cy="200" r="50" fill="#25D366" opacity="0.8"/>
    <path d="M 130 180 Q 120 200 130 220 L 150 210 Z" fill="#FFFFFF"/>
  </g>
  
  <!-- CRM system -->
  <rect x="500" y="100" width="200" height="150" rx="10" fill="#FFFFFF" stroke="#3B82F6" stroke-width="2"/>
  <rect x="510" y="110" width="180" height="20" rx="5" fill="#3B82F6"/>
  <rect x="510" y="140" width="60" height="15" rx="3" fill="#E5E7EB"/>
  <rect x="580" y="140" width="60" height="15" rx="3" fill="#E5E7EB"/>
  <rect x="650" y="140" width="40" height="15" rx="3" fill="#E5E7EB"/>
  <rect x="510" y="165" width="180" height="15" rx="3" fill="#E5E7EB"/>
  <rect x="510" y="190" width="100" height="15" rx="3" fill="#E5E7EB"/>
  <text x="520" y="125" font-family="Arial" font-size="12" fill="#FFFFFF" font-weight="bold">CRM System</text>
  
  <!-- ERP system -->
  <rect x="500" y="300" width="200" height="150" rx="10" fill="#FFFFFF" stroke="#8B5CF6" stroke-width="2"/>
  <rect x="510" y="310" width="180" height="20" rx="5" fill="#8B5CF6"/>
  <rect x="510" y="340" width="80" height="15" rx="3" fill="#E5E7EB"/>
  <rect x="510" y="365" width="80" height="15" rx="3" fill="#E5E7EB"/>
  <rect x="510" y="390" width="80" height="15" rx="3" fill="#E5E7EB"/>
  <text x="520" y="325" font-family="Arial" font-size="12" fill="#FFFFFF" font-weight="bold">ERP System</text>
  
  <!-- Database -->
  <rect x="500" y="500" width="200" height="80" rx="10" fill="#FFFFFF" stroke="#10B981" stroke-width="2"/>
  <ellipse cx="600" cy="510" rx="80" ry="10" fill="#10B981"/>
  <rect x="510" y="520" width="180" height="50" rx="5" fill="#F3F4F6"/>
  <text x="520" y="545" font-family="Arial" font-size="12" fill="#1F2937" font-weight="bold">Database</text>
  
  <!-- Connection lines -->
  <path d="M 200 200 L 500 175" stroke="#3B82F6" stroke-width="3" fill="none" stroke-dasharray="10,5"/>
  <path d="M 200 200 L 500 375" stroke="#8B5CF6" stroke-width="3" fill="none" stroke-dasharray="10,5"/>
  <path d="M 200 200 L 500 540" stroke="#10B981" stroke-width="3" fill="none" stroke-dasharray="10,5"/>
  
  <!-- Central hub -->
  <circle cx="200" cy="200" r="30" fill="#6366F1" opacity="0.3"/>
  <circle cx="200" cy="200" r="20" fill="#6366F1"/>
  <circle cx="200" cy="200" r="10" fill="#FFFFFF"/>
  
  <!-- Data flow indicators -->
  <circle cx="350" cy="187" r="5" fill="#3B82F6"/>
  <circle cx="350" cy="387" r="5" fill="#8B5CF6"/>
  <circle cx="350" cy="520" r="5" fill="#10B981"/>
</svg>
